name GIL04_static.mot
datacolumns 141
datarows 4
range 0.00833333 0.03333334
endheader

                time	           pelvis_tx	           pelvis_ty	           pelvis_tz	         pelvis_tilt	         pelvis_list	     pelvis_rotation	       hip_flexion_r	     hip_adduction_r	      hip_rotation_r	        knee_angle_r	       ankle_angle_r	    subtalar_angle_r	         mtp_angle_r	       hip_flexion_l	     hip_adduction_l	      hip_rotation_l	        knee_angle_l	       ankle_angle_l	    subtalar_angle_l	         mtp_angle_l	    lumbar_extension	      lumbar_bending	     lumbar_rotation	    ground_marker_px	    ground_marker_py	    ground_marker_pz	    ground_marker_px	    ground_marker_py	    ground_marker_pz	    ground_marker_px	    ground_marker_py	    ground_marker_pz	    ground_marker_px	    ground_marker_py	    ground_marker_pz	    ground_marker_px	    ground_marker_py	    ground_marker_pz	    ground_marker_px	    ground_marker_py	    ground_marker_pz	    ground_marker_px	    ground_marker_py	    ground_marker_pz	    ground_marker_px	    ground_marker_py	    ground_marker_pz	    ground_marker_px	    ground_marker_py	    ground_marker_pz	    ground_marker_px	    ground_marker_py	    ground_marker_pz	    ground_marker_px	    ground_marker_py	    ground_marker_pz	    ground_marker_px	    ground_marker_py	    ground_marker_pz	    ground_marker_px	    ground_marker_py	    ground_marker_pz	    ground_marker_px	    ground_marker_py	    ground_marker_pz	    ground_marker_px	    ground_marker_py	    ground_marker_pz	    ground_marker_px	    ground_marker_py	    ground_marker_pz	    ground_marker_px	    ground_marker_py	    ground_marker_pz	    ground_marker_px	    ground_marker_py	    ground_marker_pz	    ground_marker_px	    ground_marker_py	    ground_marker_pz	    ground_marker_px	    ground_marker_py	    ground_marker_pz	    ground_marker_px	    ground_marker_py	    ground_marker_pz	    ground_marker_px	    ground_marker_py	    ground_marker_pz	    ground_marker_px	    ground_marker_py	    ground_marker_pz	    ground_marker_px	    ground_marker_py	    ground_marker_pz	    ground_marker_px	    ground_marker_py	    ground_marker_pz	    ground_marker_px	    ground_marker_py	    ground_marker_pz	    ground_marker_px	    ground_marker_py	    ground_marker_pz	    ground_marker_px	    ground_marker_py	    ground_marker_pz	    ground_marker_px	    ground_marker_py	    ground_marker_pz	    ground_marker_px	    ground_marker_py	    ground_marker_pz	    ground_marker_px	    ground_marker_py	    ground_marker_pz	    ground_marker_px	    ground_marker_py	    ground_marker_pz	    ground_marker_px	    ground_marker_py	    ground_marker_pz	    ground_marker_px	    ground_marker_py	    ground_marker_pz	    ground_marker_px	    ground_marker_py	    ground_marker_pz	    ground_marker_px	    ground_marker_py	    ground_marker_pz	    ground_marker_px	    ground_marker_py	    ground_marker_pz	    ground_marker_px	    ground_marker_py	    ground_marker_pz	    ground_marker_px	    ground_marker_py	    ground_marker_pz	
          0.00833333	          1.43717754	          0.75288475	         -0.22661373	        -11.84280586	         -1.21907711	         -2.80410218	          8.67768669	         -2.22738552	         -0.40592650	          5.94645309	         -3.19606352	          0.00000000	          0.00000000	          7.70284843	         -5.30561352	         -2.64283085	          2.99279642	          0.14880274	          0.00000000	          0.00000000	         17.82649612	          1.66193414	         -1.05218852	          1.36159396	          0.70154214	         -0.22733438	          1.35931921	          0.70400912	         -0.16450949	          1.36386859	          0.69907516	         -0.29015929	          1.34053028	          0.37429988	         -0.13935229	          1.34173548	          0.37808090	         -0.30819741	          1.35529876	          0.05750402	         -0.10951724	          1.33639264	          0.05934858	         -0.34371823	          1.43717754	          0.75288475	         -0.22661373	          1.43380284	          0.75654459	         -0.13341035	          1.44055223	          0.74922484	         -0.31981713	          1.30212104	          0.81612384	         -0.21349178	          1.29988873	          0.80932802	         -0.26893830	          1.33845735	          0.37825614	         -0.08905020	          1.34156966	          0.38089758	         -0.35811773	          1.33763015	          0.37602821	         -0.18949398	          1.34305227	          0.36640760	         -0.25493520	          1.34524012	          0.06003504	         -0.07766336	          1.33038151	          0.06321081	         -0.37747025	          1.35166550	          0.06534325	         -0.13730718	          1.33261824	          0.06034537	         -0.31385750	          1.29979479	          0.03903478	         -0.11256010	          1.28333259	          0.04084717	         -0.33857575	          1.39906347	          1.11524630	         -0.24477026	          1.45311117	          0.98151195	         -0.24022153	          1.32370996	          1.14913797	         -0.24579796	          1.39802921	          1.12806809	         -0.18462862	          1.40392625	          1.12710750	         -0.29976395	          1.45135081	          0.04005171	         -0.09913401	          1.43210065	          0.03866011	         -0.35743973	          1.34208834	          0.48514536	         -0.02090592	          1.47803187	          0.47553450	         -0.33460233	          1.38212013	          0.53826201	         -0.09136405	          1.41388345	          0.52997231	         -0.27383569	          1.38660729	          0.45378318	         -0.09877076	          1.39709234	          0.44380015	         -0.27482483	          1.31708312	          0.16817914	         -0.01516051	          1.42084467	          0.16316120	         -0.37176892	          1.32961667	          0.21946630	         -0.07891157	          1.36062455	          0.21656835	         -0.34404671	
          0.01666667	          1.43720174	          0.75288224	         -0.22661352	        -11.84150124	         -1.21533287	         -2.80979228	          8.67062759	         -2.23140359	         -0.40467551	          5.95033741	         -3.19375777	          0.00000000	          0.00000000	          7.69746399	         -5.30455494	         -2.64956832	          2.99533272	          0.15128011	          0.00000000	          0.00000000	         17.86197472	          1.67181396	         -1.08362246	          1.36161935	          0.70153773	         -0.22734404	          1.35933721	          0.70400345	         -0.16451935	          1.36390150	          0.69907206	         -0.29016870	          1.34051383	          0.37432835	         -0.13935162	          1.34174919	          0.37809518	         -0.30821007	          1.35526979	          0.05751893	         -0.10951741	          1.33640027	          0.05933719	         -0.34369633	          1.43720174	          0.75288224	         -0.22661352	          1.43381572	          0.75654048	         -0.13340344	          1.44058764	          0.74922401	         -0.31982362	          1.30212796	          0.81612116	         -0.21350314	          1.29990530	          0.80933052	         -0.26895738	          1.33843648	          0.37828705	         -0.08904990	          1.34158373	          0.38091251	         -0.35813037	          1.33758342	          0.37604082	         -0.18951933	          1.34307587	          0.36643904	         -0.25493801	          1.34520864	          0.06004995	         -0.07766434	          1.33038914	          0.06319560	         -0.37744880	          1.35174167	          0.06534279	         -0.13727373	          1.33261836	          0.06037394	         -0.31384656	          1.29982996	          0.03903164	         -0.11255872	          1.28333497	          0.04085836	         -0.33859077	          1.39903152	          1.11526322	         -0.24481429	          1.45316434	          0.98156333	         -0.24026287	          1.32364714	          1.14910758	         -0.24580118	          1.39795065	          1.12807059	         -0.18465470	          1.40392125	          1.12714016	         -0.29981786	          1.45135641	          0.04006498	         -0.09913305	          1.43209636	          0.03866413	         -0.35743919	          1.34208274	          0.48515809	         -0.02091838	          1.47804534	          0.47553733	         -0.33460885	          1.38208950	          0.53824610	         -0.09136957	          1.41392863	          0.53000265	         -0.27389580	          1.38657856	          0.45379239	         -0.09879220	          1.39712334	          0.44380453	         -0.27485302	          1.31710005	          0.16818334	         -0.01516738	          1.42084813	          0.16317631	         -0.37176841	          1.32957733	          0.21950276	         -0.07892458	          1.36061215	          0.21657847	         -0.34408712	
          0.02500000	          1.43723226	          0.75286818	         -0.22662131	        -11.84121895	         -1.21226680	         -2.81300974	          8.66517639	         -2.23583817	         -0.40733334	          5.95912266	         -3.19689441	          0.00000000	          0.00000000	          7.69334984	         -5.30267000	         -2.65157628	          2.99914670	          0.15222532	          0.00000000	          0.00000000	         17.87868118	          1.66193748	         -1.03349698	          1.36165047	          0.70152330	         -0.22735868	          1.35936368	          0.70398730	         -0.16453412	          1.36393726	          0.69905925	         -0.29018325	          1.34051001	          0.37434772	         -0.13935459	          1.34176528	          0.37809151	         -0.30822459	          1.35528553	          0.05750895	         -0.10952006	          1.33641803	          0.05930327	         -0.34366566	          1.43723226	          0.75286818	         -0.22662131	          1.43383944	          0.75652409	         -0.13340804	          1.44062519	          0.74921227	         -0.31983459	          1.30213749	          0.81611294	         -0.21351664	          1.29991925	          0.80932724	         -0.26897293	          1.33842707	          0.37830910	         -0.08905330	          1.34160197	          0.38090879	         -0.35814488	          1.33764648	          0.37601674	         -0.18952657	          1.34305167	          0.36642069	         -0.25490969	          1.34522104	          0.06003889	         -0.07766799	          1.33040833	          0.06315657	         -0.37741891	          1.35184193	          0.06532069	         -0.13721208	          1.33263552	          0.06036986	         -0.31382686	          1.29986072	          0.03902088	         -0.11255681	          1.28333366	          0.04085886	         -0.33859915	          1.39903831	          1.11525071	         -0.24478598	          1.45321214	          0.98156714	         -0.24024324	          1.32359207	          1.14908850	         -0.24580717	          1.39800155	          1.12807298	         -0.18463258	          1.40388119	          1.12711501	         -0.29979268	          1.45137620	          0.04005669	         -0.09913991	          1.43209457	          0.03865254	         -0.35744181	          1.34208560	          0.48515704	         -0.02093147	          1.47805977	          0.47552526	         -0.33462551	          1.38207603	          0.53822565	         -0.09136453	          1.41395187	          0.52995467	         -0.27387649	          1.38659799	          0.45379305	         -0.09878835	          1.39712036	          0.44377685	         -0.27483490	          1.31713080	          0.16816947	         -0.01517807	          1.42085373	          0.16316806	         -0.37176797	          1.32956433	          0.21950991	         -0.07891566	          1.36060655	          0.21655348	         -0.34409577	
          0.03333334	          1.43726981	          0.75284660	         -0.22663441	        -11.84108353	         -1.21020758	         -2.81386065	          8.65979767	         -2.24050856	         -0.41213325	          5.97097397	         -3.20302391	          0.00000000	          0.00000000	          7.68889809	         -5.30031490	         -2.64894652	          3.00431323	          0.15221280	          0.00000000	          0.00000000	         17.86682320	          1.64585698	         -0.96830875	          1.36168814	          0.70150149	         -0.22737525	          1.35939956	          0.70396388	         -0.16455069	          1.36397660	          0.69903916	         -0.29019982	          1.34051585	          0.37435639	         -0.13935708	          1.34178066	          0.37807456	         -0.30823806	          1.35532880	          0.05748114	         -0.10952366	          1.33643961	          0.05926015	         -0.34363633	          1.43726981	          0.75284660	         -0.22663441	          1.43387425	          0.75649995	         -0.13342200	          1.44066536	          0.74919325	         -0.31984681	          1.30214930	          0.81610090	         -0.21353111	          1.29993248	          0.80931848	         -0.26898587	          1.33842778	          0.37832078	         -0.08905624	          1.34162128	          0.38089111	         -0.35815841	          1.33778954	          0.37595144	         -0.18952522	          1.34304750	          0.36635914	         -0.25489888	          1.34526098	          0.06000924	         -0.07767251	          1.33043253	          0.06310856	         -0.37739065	          1.35186315	          0.06528460	         -0.13718821	          1.33266461	          0.06032509	         -0.31381100	          1.29988658	          0.03900491	         -0.11255071	          1.28333485	          0.04085101	         -0.33860493	          1.39902389	          1.11520290	         -0.24470535	          1.45317197	          0.98150861	         -0.24017029	          1.32352579	          1.14907479	         -0.24581951	          1.39805424	          1.12804782	         -0.18455915	          1.40381098	          1.12704563	         -0.29971808	          1.45140231	          0.04002909	         -0.09914847	          1.43209720	          0.03862897	         -0.35744527	          1.34209883	          0.48514575	         -0.02094234	          1.47807825	          0.47550344	         -0.33464766	          1.38209653	          0.53819609	         -0.09135365	          1.41394842	          0.52987200	         -0.27382132	          1.38666141	          0.45374963	         -0.09876979	          1.39711952	          0.44374374	         -0.27480993	          1.31716597	          0.16814400	         -0.01519021	          1.42085934	          0.16314135	         -0.37176973	          1.32960355	          0.21946749	         -0.07891315	          1.36062527	          0.21647389	         -0.34406573	
